<?xml version="1.0" standalone="no"?>
<svg xmlns:xlink="http://www.w3.org/1999/xlink" id="wave" style="transform:rotate(180deg); transition: 0.3s" viewBox="0 0 1440 490" version="1.1" xmlns="http://www.w3.org/2000/svg"><defs><linearGradient id="sw-gradient-0" x1="0" x2="0" y1="1" y2="0"><stop stop-color="rgba(252, 191, 73, 1)" offset="0%"/><stop stop-color="rgba(255, 179, 11, 1)" offset="100%"/></linearGradient></defs><path style="transform:translate(0, 0px); opacity:1" fill="url(#sw-gradient-0)" d="M0,196L60,179.7C120,163,240,131,360,138.8C480,147,600,196,720,187.8C840,180,960,114,1080,147C1200,180,1320,310,1440,318.5C1560,327,1680,212,1800,187.8C1920,163,2040,229,2160,220.5C2280,212,2400,131,2520,155.2C2640,180,2760,310,2880,343C3000,376,3120,310,3240,269.5C3360,229,3480,212,3600,179.7C3720,147,3840,98,3960,130.7C4080,163,4200,278,4320,302.2C4440,327,4560,261,4680,228.7C4800,196,4920,196,5040,204.2C5160,212,5280,229,5400,245C5520,261,5640,278,5760,269.5C5880,261,6000,229,6120,212.3C6240,196,6360,196,6480,163.3C6600,131,6720,65,6840,57.2C6960,49,7080,98,7200,114.3C7320,131,7440,114,7560,130.7C7680,147,7800,196,7920,253.2C8040,310,8160,376,8280,375.7C8400,376,8520,310,8580,277.7L8640,245L8640,490L8580,490C8520,490,8400,490,8280,490C8160,490,8040,490,7920,490C7800,490,7680,490,7560,490C7440,490,7320,490,7200,490C7080,490,6960,490,6840,490C6720,490,6600,490,6480,490C6360,490,6240,490,6120,490C6000,490,5880,490,5760,490C5640,490,5520,490,5400,490C5280,490,5160,490,5040,490C4920,490,4800,490,4680,490C4560,490,4440,490,4320,490C4200,490,4080,490,3960,490C3840,490,3720,490,3600,490C3480,490,3360,490,3240,490C3120,490,3000,490,2880,490C2760,490,2640,490,2520,490C2400,490,2280,490,2160,490C2040,490,1920,490,1800,490C1680,490,1560,490,1440,490C1320,490,1200,490,1080,490C960,490,840,490,720,490C600,490,480,490,360,490C240,490,120,490,60,490L0,490Z"/></svg>